{"title":"[RAW] Naruto Shippuden Movie 4: The Lost Tower (HD) (1.29 hour)","uid":6348633,"size":891955838,"categoryP":"video","categoryS":"movies","magnet":"?xt=urn:btih:547a5ce490e33871c7061e666d46881194f1f0b9&amp;dn=%5BRAW%5D+Naruto+Shippuden+Movie+4%3A+The+Lost+Tower+%28HD%29+%281.29+hour%29&amp;tr=udp%3A%2F%2Ftracker.openbittorrent.com%3A80&amp;tr=udp%3A%2F%2Fopen.demonii.com%3A1337&amp;tr=udp%3A%2F%2Ftracker.coppersurfer.tk%3A6969&amp;tr=udp%3A%2F%2Fexodus.desync.com%3A6969","seeders":0,"leechers":1,"uploader":"narutofan4raw","files":1,"time":1303920385,"description":"Yes.. it's my first upload since i just registered here, however.. i hope you enjoy this raw! i made it best possible quality, so be nice :P\n\nThis is FULL movie! not 22 mins that is recorded from corner! THIS IS NOT A CAM RIP!\n\nObviously there is NO english subtitles, becouse this is RAW. so if you want to spoil your enjoyment, feel free to do so.. best quality for spoiling everything.\n\nSUGGESTED PLAYER: VLC (but should work with anything).\n\nSome info:\n\nFormat                           : AVI\nFormat/Info                      : Audio Video Interleave\nFile size                        : 851 MiB\nDuration                         : 1h 25mn\nOverall bit rate                 : 1 396 Kbps\n\nVideo\nID                               : 0\nFormat                           : AVC\nFormat/Info                      : Advanced Video Codec\nFormat profile                   : &lt;a class=&quot;__cf_email__&quot; href=&quot;/cdn-cgi/l/email-protection&quot; data-cfemail=&quot;1a577b73745a562f342b&quot;&gt;[email&amp;#160;protected]&lt;/a&gt;&lt;script cf-hash='f9e31' type=&quot;text/javascript&quot;&gt;\n/* &lt;![CDATA[ */!function(){try{var t=&quot;currentScript&quot;in document?document.currentScript:function(){for(var t=document.getElementsByTagName(&quot;script&quot;),e=t.length;e--;)if(t[e].getAttribute(&quot;cf-hash&quot;))return t[e]}();if(t&amp;&amp;t.previousSibling){var e,r,n,i,c=t.previousSibling,a=c.getAttribute(&quot;data-cfemail&quot;);if(a){for(e=&quot;&quot;,r=parseInt(a.substr(0,2),16),n=2;a.length-n;n+=2)i=parseInt(a.substr(n,2),16)^r,e+=String.fromCharCode(i);e=document.createTextNode(e),c.parentNode.replaceChild(e,c)}}}catch(u){}}();/* ]]&gt; */&lt;/script&gt;\nFormat settings, CABAC           : Yes\nFormat settings, ReFrames        : 1 frame\nFormat settings, GOP             : M=1, N=6\nCodec ID                         : H264\nDuration                         : 1h 25mn\nBit rate                         : 1 195 Kbps\nWidth                            : 848 pixels\nHeight                           : 464 pixels\nDisplay aspect ratio             : 16:9\nFrame rate                       : 23.000 fps\nColor space                      : YUV\nChroma subsampling               : 4:2:0\nBit depth                        : 8 bits\nScan type                        : Progressive\nBits/(Pixel*Frame)               : 0.132\nStream size                      : 728 MiB (86%)\n\nAudio\nID                               : 1\nFormat                           : MPEG Audio\nFormat version                   : Version 1\nFormat profile                   : Layer 3\nCodec ID                         : 55\nCodec ID/Hint                    : MP3\nDuration                         : 1h 25mn\nBit rate mode                    : Constant\nBit rate                         : 192 Kbps\nChannel(s)                       : 2 channels\nSampling rate                    : 44.1 KHz\nCompression mode                 : Lossy\nStream size                      : 117 MiB (14%)\nAlignment                        : Split accross interleaves\nInterleave, duration             : 44 ms (1.00 video frame)\nInterleave, preload duration     : 181 ms\nWriting library                  : LAMELAME_MAJOR_VERSI\n\n","torrent":{"xt":"urn:btih:547a5ce490e33871c7061e666d46881194f1f0b9","amp;dn":"%5BRAW%5D+Naruto+Shippuden+Movie+4%3A+The+Lost+Tower+%28HD%29+%281.29+hour%29","amp;tr":["udp%3A%2F%2Ftracker.openbittorrent.com%3A80","udp%3A%2F%2Fopen.demonii.com%3A1337","udp%3A%2F%2Ftracker.coppersurfer.tk%3A6969","udp%3A%2F%2Fexodus.desync.com%3A6969"],"infoHash":"547a5ce490e33871c7061e666d46881194f1f0b9","infoHashBuffer":{"type":"Buffer","data":[84,122,92,228,144,227,56,113,199,6,30,102,109,70,136,17,148,241,240,185]},"announce":[],"urlList":[]}}